<?xml version="1.0" encoding="utf-8"?>
<!-- Generator: Adobe Illustrator 21.0.0, SVG Export Plug-In . SVG Version: 6.00 Build 0)  -->
<svg version="1.1" id="Layer_1" xmlns="http://www.w3.org/2000/svg" xmlns:xlink="http://www.w3.org/1999/xlink" x="0px" y="0px"
	 viewBox="0 0 500 300" style="enable-background:new 0 0 500 300;" xml:space="preserve">
<style type="text/css">
	.st0{fill:#B1B1B1;}
	.st1{fill:#FFFFFF;}
</style>
<g>
	<path class="st0" d="M134.9,103.7c1-13.1,2-27.1,2-44.3c-7.6,0-11.4,0-19.1,0c0.9,14.8,0.2,29.5-0.7,44.3H134.9z"/>
	<path class="st0" d="M135.6,103.7c-1.2,17.7-2.8,35.3-2.6,52.9h19.3c-1.3-19.9-0.2-35.8,1.1-52.9
		C153.4,103.7,135.6,103.7,135.6,103.7z"/>
	<path class="st0" d="M129.3,172.8c-0.7-5.7-1.2-11-1.5-16.1h-19.3c0.1,11.7,1,23.4,3.3,35.1c22.7,0,34.1,0,56.9,0
		c-0.1-7.6-0.6-11.4-1.6-18.9C152,172.8,144.4,172.8,129.3,172.8z"/>
</g>
<path class="st1" d="M74.5,153.3h6.3c-3.3-17.7-5.7-35.7-9.2-53.3h-14c-3-14.9-6.7-29.6-12.4-43.6c-6.5,0-9.7,0-16.2,0
	C28,71.7,24.3,86,19.9,100h14c-5.7,17.8-12.6,35.2-16.9,53.3h-6.3c-2.8,11.5-4.5,23.4-4.3,35.9c7.8,0,11.7,0,19.5,0
	c2.3-11.4,1.9-17.1,2.6-28.5c10.6,0,15.9,0,26.5,0c3.9,11.4,6.6,17.1,8.9,28.5c7.8,0,11.7,0,19.5,0
	C79.5,177.5,76.8,165.5,74.5,153.3z M56.3,142.8c-7.8,0-11.7,0-19.5,0c4.1-17.3,10.8-26.9,14.5-42.6l2.6-0.1
	C56.5,115.9,53.6,125.5,56.3,142.8z M40.1,84.7c0.1,0,4.4,12.8,5,15.3h-7.6C37.9,98.3,39.8,86.6,40.1,84.7z"/>
<rect x="77.5" y="58.4" class="st1" width="17.9" height="17.9"/>
</svg>
