<?xml version="1.0" encoding="utf-8"?>
<!-- Generator: Adobe Illustrator 21.0.0, SVG Export Plug-In . SVG Version: 6.00 Build 0)  -->
<svg version="1.1" id="Layer_1" xmlns="http://www.w3.org/2000/svg" xmlns:xlink="http://www.w3.org/1999/xlink" x="0px" y="0px"
	 viewBox="0 0 500 300" style="enable-background:new 0 0 500 300;" xml:space="preserve">
<style type="text/css">
	.st0{fill:#B1B1B1;}
	.st1{fill:#FFFFFF;}
</style>
<g>
	<path class="st0" d="M134.9,103.7c1-13.1,2-27.1,2-44.3c-7.6,0-11.4,0-19.1,0c0.9,14.8,0.2,29.5-0.7,44.3H134.9z"/>
	<path class="st0" d="M135.6,103.7c-1.2,17.7-2.8,35.3-2.6,52.9h19.3c-1.3-19.9-0.2-35.8,1.1-52.9
		C153.4,103.7,135.6,103.7,135.6,103.7z"/>
	<path class="st0" d="M129.3,172.8c-0.7-5.7-1.2-11-1.5-16.1h-19.3c0.1,11.7,1,23.4,3.3,35.1c22.7,0,34.1,0,56.9,0
		c-0.1-7.6-0.6-11.4-1.6-18.9C152,172.8,144.4,172.8,129.3,172.8z"/>
	<path class="st0" d="M244.5,103.7c0.3-4,0.4-8.3,0.4-13c0-5.3-0.9-10-2.8-14.1c-1.9-4.1-4.3-7.5-7.4-10.1c-3.1-2.7-6.5-4.7-10.3-6
		c-3.8-1.4-7.6-2-11.5-2s-7.7,0.7-11.5,2c-3.8,1.4-7.2,3.4-10.3,6c-3.1,2.7-5.5,6-7.4,10.1s-2.8,8.8-2.8,14.1c0,4.7-0.2,9-0.4,13
		h5.5c-1.2,18.8-4.4,32.1-2.9,52.9h-4.4c0.1,1.3,0.1,2.5,0.3,3.9c0.5,5.5,2.1,10.2,4.5,14.2s5.1,7.4,8.4,10c3.2,2.7,6.7,4.7,10.6,6
		c3.8,1.4,7.7,2,11.5,2s7.7-0.7,11.5-2c3.8-1.4,7.1-3.4,10-6c2.9-2.7,5-6,6.4-10s1.7-8.8,1.1-14.2c-0.1-1.4-0.2-2.6-0.3-3.9h4.4
		c-1.6-20.9,1.7-34.1,2.9-52.9C250,103.7,244.5,103.7,244.5,103.7z M223.6,156.7c0.1,1.3,0.1,2.5,0.3,3.9c0.5,4.6-0.4,8-2.6,10.1
		c-2.3,2.2-5.2,3.3-8.7,3.3s-6.6-1.1-9.5-3.3c-2.8-2.2-4.6-5.5-5-10.1c-0.1-1.4-0.2-2.6-0.3-3.9h4.4c-1.6-20.9,1.7-34.1,2.9-52.9
		h-5.5c0.3-4,0.4-8.3,0.4-13c0-4.6,1.3-8,3.8-10.1c2.6-2.2,5.6-3.3,9.1-3.3s6.5,1.1,9.1,3.3c2.6,2.2,3.8,5.5,3.8,10.1
		c0,4.7-0.2,9-0.4,13h5.5c-1.2,18.8-4.4,32.1-2.9,52.9H223.6z"/>
	<path class="st0" d="M310.3,103.7c4-14.6,7.7-29.3,9.9-44.3c-8.1,0-12.1,0-20.2,0c-2.9,17.6-6.3,31-9.6,44.3h5.5
		c-3.6,14.5-7,28.8-9.4,48.1c-0.1,0-0.2,0-0.4,0c-3.9-19.3-5.2-33.6-6.4-48.1h-5.5c-1.1-13.2-2.2-26.6-5-44.3c-8.1,0-12.1,0-20.2,0
		c3.9,14.6,6.3,29.4,8.4,44.3h5.5c2.5,17.7,4.5,35.5,8.2,52.9h-4.4c2.5,11.9,5.8,23.6,10.5,35.1c6.7,0,10.1,0,16.8,0
		c0.2-11.9,1.7-23.6,3.9-35.1h4.4c3.5-17.8,8.7-35.3,13.5-52.9L310.3,103.7L310.3,103.7z"/>
	<path class="st0" d="M378.9,156.7c-4-17.4-6.5-35.2-9.3-52.9h-5.5c-2.4-14.9-5-29.7-9.2-44.3c-6.4,0-9.5,0-15.9,0
		c-2.5,15-6.5,29.7-10.7,44.3h5.5c-5.1,17.6-10.7,35.1-14.5,52.9h-4.4c-2.4,11.5-4.2,23.1-4.6,35.1c7.6,0,11.4,0,19.1,0
		c2.1-11.4,1.9-17.1,2.9-28.4c10.4,0,15.6,0,26,0c3.5,11.4,5.9,17.1,8.3,28.4c7.6,0,11.4,0,19.1,0c-5-11.5-8.5-23.2-11.2-35.1
		L378.9,156.7L378.9,156.7z M353.6,103.7c2.4,15.3,1.7,24.8,4.6,41.7c-7.6,0-11.4,0-19.1,0c3.8-17,8.2-26.5,11.7-41.7H353.6z
		 M347.2,95.2c0.4,2.2,1.2,6.5,1.5,8.5h-3.4C345.7,101.8,347,95.2,347.2,95.2z"/>
	<path class="st0" d="M376.7,76.6c8.8,0,13.2,0,22.1,0c0,10,0,18.8-0.1,27.1h5.5c-0.1,19-0.3,34.7-0.3,52.9h-4.4
		c0,10.3,0.1,21.5,0.4,34.4c7.6,0,11.4,0,19.1,0c-0.2-13-0.4-24.1-0.4-34.4h4.4c0-18.2,0.2-34,0.3-52.9h-5.5
		c0.1-8.3,0.1-17.1,0.1-27.1c8.8,0,13.2,0,22.1,0c0-7.1,0-10.7,0-17.8c-25.3,0-37.9,0-63.2,0C376.7,65.9,376.7,69.5,376.7,76.6z"/>
	<path class="st0" d="M475.3,103.7h-5.5c1-14.7,1.7-29.5,0.7-44.3c-7.6,0-11.4,0-19.1,0c0.9,14.8,0.2,29.5-0.7,44.3h5.5
		c-1.2,17.7-2.8,35.3-2.6,52.9h-4.4c0.1,11.7,1,23.4,3.3,35.1c7.6,0,11.4,0,19.1,0c-2.3-11.7-3.2-23.4-3.3-35.1h4.4
		C472.5,139,474.1,121.4,475.3,103.7z"/>
</g>
<path class="st1" d="M74.5,153.3h6.3c-3.3-17.7-5.7-35.7-9.2-53.3h-14c-3-14.9-6.7-29.6-12.4-43.6c-6.5,0-9.7,0-16.2,0
	C28,71.7,24.3,86,19.9,100h14c-5.7,17.8-12.6,35.2-16.9,53.3h-6.3c-2.8,11.5-4.5,23.4-4.3,35.9c7.8,0,11.7,0,19.5,0
	c2.3-11.4,1.9-17.1,2.6-28.5c10.6,0,15.9,0,26.5,0c3.9,11.4,6.6,17.1,8.9,28.5c7.8,0,11.7,0,19.5,0
	C79.5,177.5,76.8,165.5,74.5,153.3z M56.3,142.8c-7.8,0-11.7,0-19.5,0c4.1-17.3,10.8-26.9,14.5-42.6l2.6-0.1
	C56.5,115.9,53.6,125.5,56.3,142.8z M40.1,84.7c0.1,0,4.4,12.8,5,15.3h-7.6C37.9,98.3,39.8,86.6,40.1,84.7z"/>
<rect x="77.5" y="58.4" class="st1" width="17.9" height="17.9"/>
<rect x="487.1" y="172.7" class="st0" width="7.9" height="7.9"/>
<path class="st0" d="M493.7,210.8h-6.6V186h7.9v23.5C495,210.2,494.4,210.8,493.7,210.8z"/>
<g>
	<path class="st1" d="M13.9,236.4c0.4-1.5,0.8-2.8,1.2-4.3l3-10.6h3.1l3.1,10.7c0.4,1.4,0.8,2.7,1.1,4.1h0.1
		c0.3-1.4,0.7-2.8,1.2-4.3l3.1-10.6h2.1L27,238.2h-3.1l-3-10.7c-0.5-1.5-0.8-2.9-1.2-4.3h-0.1c-0.4,1.5-0.7,2.8-1.1,4.2l-3.1,10.8
		h-3.1l-4.9-16.7h2.3l3,10.3C13.1,233.3,13.6,234.8,13.9,236.4L13.9,236.4L13.9,236.4z"/>
	<path class="st1" d="M35.3,238.2v-16.7h10.1v1.7h-7.9v5.7h7v1.7h-7v5.9h8.3v1.7L35.3,238.2L35.3,238.2z"/>
	<path class="st1" d="M62.3,233.4c0,2.7-1.9,4.7-6.4,4.7h-5.8v-16.7H56c2.9,0,5.4,1.1,5.4,4.3c0,2-1.1,3.4-2.6,3.8v0.1
		C60.8,229.8,62.3,231,62.3,233.4z M55.6,223.1h-3.3v5.8h3.4c2.4,0,3.6-0.9,3.6-3C59.2,223.9,57.8,223.1,55.6,223.1z M60.1,233.6
		c0-2.4-1.9-3-4.1-3h-3.7v5.9h3.8C58.9,236.5,60.1,235.6,60.1,233.6z"/>
	<path class="st1" d="M76.1,221.5h5c5.7,0,8.3,2.6,8.3,8.2c0,5.4-2.5,8.5-8.3,8.5h-5V221.5z M78.2,236.5H81c4.2,0,6.1-1.8,6.1-6.6
		c0-5-2.2-6.7-6.3-6.7h-2.6V236.5z"/>
	<path class="st1" d="M94.2,238.2v-16.7h10.1v1.7h-7.9v5.7h7v1.7h-7v5.9h8.3v1.7L94.2,238.2L94.2,238.2z"/>
	<path class="st1" d="M106.8,221.5h2.4l4.4,12c0.4,1.1,0.8,2.2,1.1,3.2h0.1c0.4-1.1,0.8-2.1,1.1-3.2l4.4-12h2.2l-6.2,16.7H113
		L106.8,221.5z"/>
	<path class="st1" d="M125.9,238.2v-16.7H136v1.7h-7.9v5.7h7v1.7h-7v5.9h8.3v1.7L125.9,238.2L125.9,238.2z"/>
	<path class="st1" d="M143,221.5v15h8.2v1.7h-10.4v-16.7H143z"/>
	<path class="st1" d="M160.4,238.4c-4.5,0-7.3-2.4-7.3-8.5c0-6.2,2.9-8.7,7.5-8.7c4.5,0,7.3,2.4,7.3,8.5
		C167.9,235.9,165,238.4,160.4,238.4z M160.6,236.7c3.2,0,5.1-1.6,5.1-6.8s-2-7-5.2-7c-3.1,0-5.1,1.6-5.1,6.8
		C155.4,234.9,157.4,236.7,160.6,236.7z"/>
	<path class="st1" d="M184.4,226.3c0,3.3-2.2,5.3-6.6,5.3h-2.9v6.6h-2.2v-16.7h5.5C182,221.5,184.4,222.9,184.4,226.3z M174.9,223.2
		v6.7h2.9c3.2,0,4.3-1.2,4.3-3.4c0-2.4-1.5-3.3-4.4-3.3H174.9z"/>
	<path class="st1" d="M188.5,238.2v-16.7h10.1v1.7h-7.9v5.7h7v1.7h-7v5.9h8.3v1.7L188.5,238.2L188.5,238.2z"/>
	<path class="st1" d="M208.2,221.5c4,0,6.4,1.4,6.4,4.7c0,2.7-2,4.3-4.3,4.5v0.1c0.8,0.3,1.4,0.9,2.3,2.1l3.5,5.2h-2.6l-3.4-5.3
		c-0.7-1.1-1.6-1.6-3-1.6h-1.5v6.9h-2.2v-16.7h4.8V221.5z M205.6,229.6h2.4c2.6,0,4.3-0.9,4.3-3.2s-1.6-3.2-4.4-3.2h-2.3V229.6z"/>
	<path class="st1" d="M228.8,244.1v-25.9h1.7v25.9H228.8z"/>
	<path class="st1" d="M257.9,222.7l-1.4,1.5c-0.8-0.7-2.1-1.1-4-1.1c-2.8,0-5.8,1.3-5.8,6.7c0,5,2,7,5.8,7c1.2,0,2.6-0.2,3.3-0.7
		v-6.4h2.2v7.2c-1.2,0.9-3,1.5-6,1.5c-4.9,0-7.5-2.8-7.5-8.5c0-6,3.6-8.6,8.2-8.6C255.8,221.2,257.3,222.1,257.9,222.7z"/>
	<path class="st1" d="M268,221.5c4,0,6.4,1.4,6.4,4.7c0,2.7-2,4.3-4.3,4.5v0.1c0.8,0.3,1.4,0.9,2.3,2.1l3.5,5.2h-2.6l-3.5-5.3
		c-0.7-1.1-1.6-1.6-3-1.6h-1.5v6.9h-2.2v-16.7h4.9V221.5z M265.4,229.6h2.4c2.6,0,4.3-0.9,4.3-3.2s-1.6-3.2-4.4-3.2h-2.3V229.6z"/>
	<path class="st1" d="M287.2,221.5l6.2,16.7h-2.3l-1.8-4.9h-7.7l-1.8,4.9h-2.2l6.2-16.7H287.2z M282.3,231.6h6.4l-2-5.6
		c-0.4-1.2-0.8-2.2-1.1-3.2h-0.1c-0.3,1-0.7,2-1.1,3.2L282.3,231.6z"/>
	<path class="st1" d="M308.3,226.3c0,3.3-2.2,5.3-6.6,5.3h-2.9v6.6h-2.2v-16.7h5.5C305.9,221.5,308.3,222.9,308.3,226.3z
		 M298.9,223.2v6.7h2.9c3.2,0,4.3-1.2,4.3-3.4c0-2.4-1.5-3.3-4.4-3.3H298.9z"/>
	<path class="st1" d="M326,221.5v16.7h-2.2v-7.6h-9.2v7.6h-2.2v-16.7h2.2v7.4h9.2v-7.4H326z"/>
	<path class="st1" d="M332,221.5h2.2v16.7H332V221.5z"/>
	<path class="st1" d="M347,221.2c2.9,0,4.4,0.9,5.1,1.4l-1.4,1.4c-0.8-0.6-1.9-1.1-3.9-1.1c-3.3,0-5.4,2.1-5.4,6.8
		c0,4.5,1.9,6.9,5.6,6.9c1.9,0,3-0.5,3.7-1l1.2,1.4c-0.8,0.7-2.5,1.4-5.2,1.4c-5.2,0-7.5-3.3-7.5-8.5
		C339.2,224.5,341.9,221.2,347,221.2z"/>
	<path class="st1" d="M365,221.5h5c5.7,0,8.3,2.6,8.3,8.2c0,5.4-2.5,8.5-8.3,8.5h-5V221.5z M367.2,236.5h2.8c4.2,0,6.1-1.8,6.1-6.6
		c0-5-2.2-6.7-6.3-6.7h-2.6V236.5z"/>
	<path class="st1" d="M383.1,238.2v-16.7h10.1v1.7h-7.9v5.7h7v1.7h-7v5.9h8.3v1.7L383.1,238.2L383.1,238.2z"/>
	<path class="st1" d="M406.4,233.9c0-3.8-9.1-2.9-9.1-8.2c0-2.5,2.5-4.5,5.9-4.5c2.1,0,3.8,0.6,4.9,1.4l-1.3,1.5
		c-1-0.7-2.1-1.1-3.7-1.1c-2.2,0-3.6,1.1-3.6,2.6c0,3.9,9.1,3,9.1,8.2c0,2.5-2.3,4.6-6.4,4.6c-2.9,0-4.9-0.9-6-1.8l1.3-1.5
		c1.1,0.8,2.6,1.6,4.9,1.6C405,236.7,406.4,235.4,406.4,233.9z"/>
	<path class="st1" d="M413.4,221.5h2.2v16.7h-2.2V221.5z"/>
	<path class="st1" d="M434,222.7l-1.4,1.5c-0.8-0.7-2.1-1.1-4-1.1c-2.8,0-5.8,1.3-5.8,6.7c0,5,2,7,5.8,7c1.2,0,2.6-0.2,3.3-0.7v-6.4
		h2.2v7.2c-1.2,0.9-3,1.5-6,1.5c-4.9,0-7.5-2.8-7.5-8.5c0-6,3.6-8.6,8.2-8.6C431.9,221.2,433.4,222.1,434,222.7z"/>
	<path class="st1" d="M441.3,223.7c0.1,1.4,0.1,2.8,0.1,4.4v10h-2.1v-16.7h3l6.4,10.6c0.7,1.2,1.5,2.5,2.2,3.8h0.2
		c-0.1-1.5-0.1-3.1-0.1-4.5v-9.9h2v16.7h-3l-6.5-10.6C442.7,226.3,442,225,441.3,223.7L441.3,223.7z"/>
	<path class="st1" d="M458.9,238.2v-16.7H469v1.7h-7.9v5.7h7v1.7h-7v5.9h8.3v1.7L458.9,238.2L458.9,238.2z"/>
	<path class="st1" d="M478.6,221.5c4,0,6.4,1.4,6.4,4.7c0,2.7-2,4.3-4.3,4.5v0.1c0.8,0.3,1.4,0.9,2.3,2.1l3.5,5.2h-2.6l-3.4-5.3
		c-0.7-1.1-1.6-1.6-3-1.6H476v6.9h-2.2v-16.7h4.8V221.5z M475.9,229.6h2.4c2.6,0,4.3-0.9,4.3-3.2s-1.6-3.2-4.4-3.2h-2.3V229.6z"/>
	<path class="st1" d="M490.9,235.2c0.9,0,1.7,0.6,1.7,1.5c0,0.8-0.7,1.4-1.7,1.4c-0.9,0-1.7-0.6-1.7-1.4
		C489.3,235.9,490,235.2,490.9,235.2z"/>
</g>
</svg>
