<svg xmlns="http://www.w3.org/2000/svg" viewBox="0 0 855.5 183.94"><defs><style>.cls-1,.cls-3{fill:#fff;}.cls-2{fill:#616160;}.cls-3{font-size:22px;font-family:MyriadPro-Regular, Myriad Pro;}.cls-4{letter-spacing:0em;}.cls-5{letter-spacing:-0.01em;}.cls-6{letter-spacing:-0.01em;}.cls-7{letter-spacing:-0.01em;}.cls-8{letter-spacing:0.01em;}.cls-9{letter-spacing:0em;}.cls-10{letter-spacing:0em;}.cls-11{letter-spacing:0em;}.cls-12{letter-spacing:0em;}.cls-13{letter-spacing:0em;}.cls-14{letter-spacing:0em;}.cls-15{letter-spacing:-0.01em;}.cls-16{letter-spacing:0.01em;}.cls-17{letter-spacing:-0.01em;}</style></defs><title>Asset 2</title><g id="Layer_2" data-name="Layer 2"><g id="Livello_1" data-name="Livello 1"><path class="cls-1" d="M63.29,43.78H46.16c2.52,15.33-.34,24.64,2.33,41.46H29.62c4-16.83,10.55-26.13,14.12-41.46H26.67c-5.49,17.3-12.19,34.1-16.43,51.69h62C69,78.3,66.66,60.85,63.29,43.78Z"/><path class="cls-1" d="M4.16,95.46A135.12,135.12,0,0,0,0,130.26H18.9c2.22-11.07,1.8-16.6,2.5-27.67H47.13c3.74,11.07,6.38,16.6,8.6,27.67H74.61a280,280,0,0,1-8.47-34.8Z"/><path class="cls-1" d="M38.8,30.51c.15,0,2,8.38,2.14,8.38.42,1.83,1.51,3.57,1.79,5.24l13.76-.35C53.63,29.28,50,15.06,44.47,1.52H28.74c-1,14.82-4.56,28.69-8.86,42.26H36.94C37.33,42.11,38.49,32.34,38.8,30.51Z"/><path class="cls-1" d="M102.59,1.52H84.45c2.46,14.44,2.07,28.43.85,42.26h32.36C113.51,30.95,108.85,18.57,102.59,1.52Z"/><path class="cls-1" d="M150.33,1.52H131.45c0,17.06.12,29.43-.46,42.26h20.18C152.41,29.95,152.8,16,150.33,1.52Z"/><path class="cls-1" d="M158,43.78H137.79c-.47,10.51-1.4,21.34-3.24,35.31h-.37c-3.29-14-6.34-24.8-9.73-35.31H92.08C90.55,61.08,87.7,78.13,87.4,95.46h21.84a245,245,0,0,1,2.05-42.59h.37A284.28,284.28,0,0,0,125.5,95.46h27.78C153.59,78.13,156.43,61.08,158,43.78Z"/><path class="cls-1" d="M85.16,130.26H104c0-13.75-.59-24.45-.88-34.8H81.32A125.28,125.28,0,0,0,85.16,130.26Z"/><path class="cls-1" d="M147.21,95.46H119.43c4.15,10.36,8.73,21.05,13.86,34.8H151A125.28,125.28,0,0,1,147.21,95.46Z"/><path class="cls-1" d="M208.48,95.46c0,.47,0,.88.08,1.35.57,5.55.14,9.61-1.69,12.2s-5.41,3.89-10.71,3.89h-8.7a157.9,157.9,0,0,1-1.55-17.44H166.27a125.28,125.28,0,0,0,3.84,34.8h26.28c11.23,0,19.94-2.86,25.37-8.59s6.52-14.4,5.53-26.21Z"/><path class="cls-1" d="M195.58,43.78H177c-1.54,17.31-4.38,34.36-4.68,51.69H192C191.34,76.47,194.37,61.75,195.58,43.78Z"/><path class="cls-1" d="M233.34,95c-1.84-20.89,4.42-32.74,5.43-51.23H219.91c-1,18.78-7.17,30.93-5.35,51.69h18.82C233.35,95.31,233.35,95.16,233.34,95Z"/><path class="cls-1" d="M188.91,18.88h8.7q8.33,0,11.73,4.16c2.27,2.77,3.59,6.69,3.81,11.75.14,3.19.11,6.16,0,9H232c.15-2.83.19-5.8.05-9-.46-10.49-4-18.65-9.88-24.5s-14.07-8.77-24.81-8.77H169.39c2.46,14.44,2.07,28.43.84,42.26h18.55A192.91,192.91,0,0,0,188.91,18.88Z"/><path class="cls-1" d="M269.78,18.88h9.81A23.43,23.43,0,0,1,288,20.15,11.39,11.39,0,0,1,293.15,24a16.08,16.08,0,0,1,2.69,6.33,49.64,49.64,0,0,1,.92,8.59c0,1.72,0,3.32-.08,4.83h18.78a38.16,38.16,0,0,0,.19-4.47c-.66-25.2-12.82-37.79-35-37.79H250.26c2.46,14.44,2.07,28.43.84,42.26H271C271.26,36,270.4,29,269.78,18.88Z"/><path class="cls-1" d="M302,71.5c6.68-3.25,11.92-7.56,15.34-12.93a32.63,32.63,0,0,0,4.89-14.79H303.47a27.92,27.92,0,0,1-.48,3.76,15.3,15.3,0,0,1-2.78,6.24A12.5,12.5,0,0,1,295,57.67,21.34,21.34,0,0,1,286.83,59H276.09a93.42,93.42,0,0,0,1.74-15.24H257.9c-1.54,17.31-4.38,34.36-4.68,51.69H272a74.48,74.48,0,0,1,.77-20.17H284.1a83.49,83.49,0,0,0,5.69,20.17h19.38A90.07,90.07,0,0,1,302,71.5Z"/><path class="cls-1" d="M251,130.26h18.88c0-14.21-2.87-23.84-3.89-34.8H247.14A125.28,125.28,0,0,0,251,130.26Z"/><path class="cls-1" d="M283.71,95.46c4.53,11,10.47,20.59,15,34.8h20c-4.9-14.15-10.88-24-15.63-34.8Z"/><path class="cls-1" d="M350.66,18.88h37.39c-.42-6.94-.64-10.42-.64-17.36H331.14c2.46,14.44,2.07,28.43.85,42.26h20C352.2,35.84,351.28,29.06,350.66,18.88Z"/><path class="cls-1" d="M353.92,74h32.57c1.26-6.94,2.28-10.42,3.48-17.36H357.4a90,90,0,0,0,1.34-12.89h-20c-1.54,17.31-4.38,34.36-4.68,51.69h18.78A73.3,73.3,0,0,1,353.92,74Z"/><path class="cls-1" d="M349,111.82c-.95-6.44-1.78-11.49-2.24-16.36H328a125.28,125.28,0,0,0,3.84,34.8h56.27c0-7.38-.61-11.07-1.7-18.44Z"/><path class="cls-1" d="M398,95.46a135.12,135.12,0,0,0-4.14,34.8h18.88c2.22-11.07,1.8-16.6,2.5-27.67H441c3.74,11.07,6.38,16.6,8.6,27.67h18.88A280,280,0,0,1,460,95.46Z"/><path class="cls-1" d="M457.12,43.78H440c2.52,15.33,4,24.64,6.65,41.46H423.45c4-16.83,10.55-26.13,14.12-41.46H420.5c-5.49,17.3-12.19,34.1-16.43,51.69h62C462.85,78.3,460.5,60.85,457.12,43.78Z"/><path class="cls-1" d="M431.27,37.84c.15,0,.75-8.56.89-8.56.42,1.83,3.12,12.82,3.4,14.49h14.77c-2.86-14.49-6.47-28.72-12-42.26H422.57c-1,14.82-4.56,28.69-8.86,42.26h17.07C431.17,42.11,431,39.68,431.27,37.84Z"/><path class="cls-2" d="M527.26,1.08h-18.5c.89,14.35.23,28.65-.72,42.92h17.28C526.26,31.26,527.26,17.75,527.26,1.08Z"/><path class="cls-2" d="M543.25,44H526c-1.14,17.14-2.68,34.23-2.51,51.34h18.74C540.92,76,542,60.62,543.25,44Z"/><path class="cls-2" d="M519.89,111c-.69-5.56-1.13-10.7-1.46-15.64H499.69a181.85,181.85,0,0,0,3.22,34h55.14A138.85,138.85,0,0,0,556.53,111Z"/><path class="cls-2" d="M588.5,31.35q0-6.66,3.72-9.82a13.85,13.85,0,0,1,17.59,0q3.71,3.15,3.72,9.82c0,4.57-.17,8.73-.42,12.66h18.5c.25-3.93.42-8.09.42-12.66a32.57,32.57,0,0,0-2.72-13.69,28.62,28.62,0,0,0-7.16-9.82,31,31,0,0,0-10-5.86,32.38,32.38,0,0,0-22.31,0,30.93,30.93,0,0,0-10,5.86,28.57,28.57,0,0,0-7.16,9.82A32.57,32.57,0,0,0,570,31.35c0,4.57-.17,8.73-.42,12.66h18.5C588.33,40.08,588.5,35.92,588.5,31.35Z"/><path class="cls-2" d="M593.43,44h-18.5c-1.18,18.24-4.31,31.1-2.79,51.34h18.5C589.12,75.1,592.25,62.24,593.43,44Z"/><path class="cls-2" d="M637,44h-18.5c-1.18,18.24-4.31,31.1-2.79,51.34h18.5C632.66,75.1,635.79,62.24,637,44Z"/><path class="cls-2" d="M629.89,95.34h-18.5c.09,1.25.15,2.44.28,3.75.45,4.45-.36,7.72-2.57,9.82a11.73,11.73,0,0,1-8.41,3.15,14.71,14.71,0,0,1-9.19-3.15c-2.74-2.1-4.42-5.38-4.87-9.82-.13-1.31-.18-2.5-.28-3.75h-18.5c.09,1.25.15,2.44.28,3.75a33.69,33.69,0,0,0,4.36,13.78,35.67,35.67,0,0,0,8.15,9.73,34,34,0,0,0,10.27,5.86,33.09,33.09,0,0,0,11.17,2,32.62,32.62,0,0,0,11.13-2,28,28,0,0,0,9.69-5.86,23.5,23.5,0,0,0,6.18-9.73c1.34-3.9,1.62-8.5,1.08-13.78C630,97.77,630,96.59,629.89,95.34Z"/><path class="cls-2" d="M655.57,1.08H636c3.81,14.15,6.11,28.52,8.11,42.92h16.38C659.39,31.18,658.38,18.17,655.57,1.08Z"/><path class="cls-2" d="M705.09,1.08H685.5c-2.84,17.09-6.12,30.1-9.28,42.92h19.25C699.35,29.85,703,15.63,705.09,1.08Z"/><path class="cls-2" d="M653.15,95.34a194,194,0,0,0,10.2,34h16.33a192.45,192.45,0,0,1,3.79-34Z"/><path class="cls-2" d="M700.84,44H681.59c-3.46,14.06-6.76,27.89-9.15,46.62h-.36C668.28,71.89,667,58.06,665.83,44H649.46c2.39,17.19,4.39,34.41,8,51.34h30.32C691.11,78,696.16,61.08,700.84,44Z"/><path class="cls-2" d="M730.69,38h.36c.41,2.12.75,4.08,1,6h15.53c-2.29-14.41-4.87-28.79-9-42.92H723.25C720.85,15.65,717,29.86,712.84,44H729.4C729.84,42.1,730.28,40.13,730.69,38Z"/><path class="cls-2" d="M699.9,95.34a194.53,194.53,0,0,0-4.42,34H714c2-11,1.87-16.54,2.8-27.56H742c3.42,11,5.77,16.54,8.08,27.56h18.5a196.41,196.41,0,0,1-10.87-34Z"/><path class="cls-2" d="M753,44H737.46c2.33,14.81,1.66,24,4.43,40.49h-18.5C727,68,731.31,58.82,734.76,44H718.2c-5,17.07-10.35,34-14,51.34H762C758.07,78.43,755.73,61.2,753,44Z"/><path class="cls-2" d="M799.76,17.74h21.4V.44H759.85v17.3h21.4c0,9.67,0,18.25-.1,26.27h18.5C799.72,36,799.76,27.4,799.76,17.74Z"/><path class="cls-2" d="M805,44h-18.5c-.13,18.38-.33,33.67-.28,51.34h18.5C804.7,77.67,804.9,62.38,805,44Z"/><path class="cls-2" d="M781.95,95.34c0,10,.13,20.81.36,33.38h18.5c-.24-12.57-.34-23.35-.36-33.38Z"/><path class="cls-2" d="M850.86,1.08h-18.5c.89,14.35.23,28.65-.72,42.92h18.5C851.09,29.73,851.75,15.43,850.86,1.08Z"/><path class="cls-2" d="M855.5,44H837c-1.14,17.14-2.68,34.23-2.51,51.34H853C852.82,78.24,854.36,61.14,855.5,44Z"/><path class="cls-2" d="M848.7,95.34H830.2a181.85,181.85,0,0,0,3.22,34h18.5A181.85,181.85,0,0,1,848.7,95.34Z"/><text class="cls-3" transform="translate(24 178.44)">I&apos;m <tspan class="cls-4" x="32.41" y="0">A</tspan><tspan x="45.8" y="0">nd</tspan><tspan class="cls-5" x="70.42" y="0">r</tspan><tspan x="77.4" y="0">ea, a firs</tspan><tspan class="cls-6" x="150.92" y="0">t-</tspan><tspan class="cls-5" x="164.73" y="0">y</tspan><tspan x="174.88" y="0">ear Di</tspan><tspan class="cls-7" x="228.16" y="0">g</tspan><tspan x="240.33" y="0">ital </tspan><tspan class="cls-8" x="273.21" y="0">M</tspan><tspan x="291.03" y="0">edia </tspan><tspan class="cls-9" x="334.88" y="0">D</tspan><tspan class="cls-10" x="349.62" y="0">e</tspan><tspan class="cls-5" x="360.64" y="0">v</tspan><tspan class="cls-10" x="371" y="0">elopme</tspan><tspan class="cls-11" x="441.18" y="0">n</tspan><tspan x="453.3" y="0">t stude</tspan><tspan class="cls-12" x="516.79" y="0">n</tspan><tspan x="528.92" y="0">t </tspan><tspan class="cls-13" x="540.86" y="0">a</tspan><tspan class="cls-14" x="551.38" y="0">t the Uni</tspan><tspan class="cls-15" x="630.09" y="0">v</tspan><tspan x="640.45" y="0">ersi</tspan><tspan class="cls-16" x="672.53" y="0">t</tspan><tspan x="680.01" y="0">y of B</tspan><tspan class="cls-9" x="730.12" y="0">r</tspan><tspan x="737.41" y="0">ig</tspan><tspan class="cls-12" x="754.85" y="0">h</tspan><tspan class="cls-17" x="766.97" y="0">t</tspan><tspan x="774.12" y="0">on.</tspan></text></g></g></svg>